<?xml version="1.0" encoding="UTF-8" standalone="no"?>
<svg
   xmlns:dc="http://purl.org/dc/elements/1.1/"
   xmlns:cc="http://creativecommons.org/ns#"
   xmlns:rdf="http://www.w3.org/1999/02/22-rdf-syntax-ns#"
   xmlns:svg="http://www.w3.org/2000/svg"
   xmlns="http://www.w3.org/2000/svg"
   height="69.800003"
   width="53.861462"
   id="svg8"
   version="1.1"
   y="0px"
   x="0px"
   viewBox="0 0 53.861462 69.800003"
   data-name="Layer 1">
  <metadata
     id="metadata14">
    <rdf:RDF>
      <cc:Work
         rdf:about="">
        <dc:format>image/svg+xml</dc:format>
        <dc:type
           rdf:resource="http://purl.org/dc/dcmitype/StillImage" />
        <dc:title>glass</dc:title>
      </cc:Work>
    </rdf:RDF>
  </metadata>
  <defs
     id="defs12" />
  <title
     id="title2">glass</title>
  <g
     transform="translate(-23.069269,-15.1)"
     id="g6"
     data-name="Group">
    <path
       id="path4"
       d="M 74,15.1 H 26 a 2.9,2.9 0 0 0 -2.2,1.1 2.8,2.8 0 0 0 -0.7,2.3 l 8.5,63.8 a 3.1,3.1 0 0 0 3,2.6 h 30.8 a 3.1,3.1 0 0 0 3,-2.6 L 76.9,18.5 A 2.8,2.8 0 0 0 76.2,16.2 2.9,2.9 0 0 0 74,15.1 Z m -6.4,27.8 -2.5,-1 a 16.5,16.5 0 0 0 -8.2,-2 16.5,16.5 0 0 0 -8.2,2 11.5,11.5 0 0 1 -5.6,1.3 11.8,11.8 0 0 1 -5.6,-1.3 14.7,14.7 0 0 0 -5.5,-1.8 l -2.5,-19 h 41 z"
       data-name="Compound Path" />
  </g>
</svg>
